# xmcd CD database file
#
# Track frame offsets:
#	150
#	12392
#	26323
#	38660
#	51112
#	62491
#	75501
#	86289
#	100500
#	116138
#	129605
#	139696
#
# Disc length: 2046 seconds
#
# Revision: 1
# Processed by: cddbd v1.4PL0 Copyright (c) Steve Scherf et al.
# Submitted via: CDValet v3.40 - Copyright (c) 1996 - 1998 Greg Leichner
#
DISCID=8907fc0c
DTITLE=Tashian, Barry and Holly - At Home
DYEAR=1900
DGENRE=
TTITLE0=We Could
TTITLE1=A Man's Best Friend Is His Automobile
TTITLE2=These Little Things
TTITLE3=One More Me (The Cloning Song)
TTITLE4=Whiskey Before Breakfast - Beaumont Rag
TTITLE5=There Goes My Love
TTITLE6=More And More
TTITLE7=The Sound Of Your Name
TTITLE8=Lonesome Highway Blues
TTITLE9=My Happiness
TTITLE10=My Window Faces The South
TTITLE11=Watermelon Time In Georgia
EXTD=
EXTT0=
EXTT1=
EXTT2=
EXTT3=
EXTT4=
EXTT5=
EXTT6=
EXTT7=
EXTT8=
EXTT9=
EXTT10=
EXTT11=
PLAYORDER=
